<?xml version="1.0" encoding="UTF-8" standalone="no"?>
<svg
   xmlns:dc="http://purl.org/dc/elements/1.1/"
   xmlns:cc="http://creativecommons.org/ns#"
   xmlns:rdf="http://www.w3.org/1999/02/22-rdf-syntax-ns#"
   xmlns:svg="http://www.w3.org/2000/svg"
   xmlns="http://www.w3.org/2000/svg"
   xml:space="preserve"
   style="enable-background:new 0 0 254 254;"
   viewBox="0 0 254 254"
   y="0px"
   x="0px"
   id="Layer_1"
   version="1.1"><metadata
   id="metadata152"><rdf:RDF><cc:Work
       rdf:about=""><dc:format>image/svg+xml</dc:format><dc:type
         rdf:resource="http://purl.org/dc/dcmitype/StillImage" /><dc:title></dc:title></cc:Work></rdf:RDF></metadata><defs
   id="defs150" />
<style
   id="style139"
   type="text/css">
	.st0{fill-rule:evenodd;clip-rule:evenodd;fill:#E84142;}
	.st1{fill:#FFFFFF;}
</style>
<g
   transform="translate(0.88041594,-2.2010399)"
   id="g145">
	<circle
   style="fill:#1c2422"
   id="circle141"
   r="127"
   cy="129.20103"
   cx="126.11958"
   class="st0" />
	
<text
   xml:space="preserve"
   style="font-style:normal;font-variant:normal;font-weight:bold;font-stretch:normal;font-size:100.034px;line-height:25;font-family:'Sitka Banner';-inkscape-font-specification:'Sitka Banner, Bold';font-variant-ligatures:normal;font-variant-caps:normal;font-variant-numeric:normal;font-variant-east-asian:normal;fill:#ffffff;stroke-width:2.50085"
   x="39.931557"
   y="88.159386"
   id="text38"
   transform="scale(0.45533418,2.1961892)"><tspan
     id="tspan36"
     x="39.931557"
     y="88.159386"
     style="font-style:normal;font-variant:normal;font-weight:bold;font-stretch:normal;font-size:100.034px;font-family:'Sitka Banner';-inkscape-font-specification:'Sitka Banner, Bold';font-variant-ligatures:normal;font-variant-caps:normal;font-variant-numeric:normal;font-variant-east-asian:normal;stroke-width:2.50085">CR          CK</tspan></text><path
   style="stroke-width:1.09962"
   id="path10"
   fill="#ffffff"
   d="m 142.15503,33.503874 c 0.106,0.193951 0.206,0.394068 0.298,0.599627 l 11.415,25.777274 c 1.024,2.323416 1.581,4.903416 1.626,7.53263 0.045,2.629577 -0.423,5.235321 -1.366,7.607703 l -40.426,101.525352 c -1.772,4.4449 -4.56901,8.18365 -8.05801,10.76885 l -31.655602,23.45301 c -1.2286,0.91897 -2.5061,1.31195 -3.73,1.29018 -1.3268,-2.25872 -1.7475,-5.30703 -0.5178,-8.34084 L 136.36203,37.913467 c 0.53,-1.300581 1.348,-2.400198 2.364,-3.177935 1.015,-0.777857 2.189,-1.203726 3.393,-1.231053 0.012,-2.42e-4 0.024,-4.84e-4 0.036,-6.05e-4 z"
   clip-rule="evenodd"
   fill-rule="evenodd" /><path
   id="path16"
   fill="#ffffff"
   d="m 162.70214,132.78649 7.838,10.61 c 0.775,1.05 1.331,2.243 1.635,3.51 0.304,1.268 0.35,2.582 0.135,3.868 -0.214,1.285 -0.685,2.514 -1.385,3.615 -0.699,1.101 -1.613,2.052 -2.688,2.796 l -26.585,18.413 c -0.411,0.288 -0.864,0.504 -1.34,0.641 -0.05,-0.159 -0.092,-0.32 -0.124,-0.485 -0.193,-0.984 -0.05,-2.004 0.407,-2.897 l 18.692,-37.508 c 0.367,-0.734 0.918,-1.361 1.6,-1.821 0.548,-0.37 1.167,-0.622 1.815,-0.742 z"
   clip-rule="evenodd"
   fill-rule="evenodd" /><path
   id="path229"
   d="m 69.457815,218.67331 c -1.463369,-3.45013 -2.657995,-0.23183 33.293675,-89.69237 22.92468,-57.044774 34.1475,-84.458689 34.90336,-85.258313 1.06104,-1.122466 3.49219,-2.431922 3.84722,-2.072174 0.29345,0.297349 10.86374,24.275534 11.91209,27.021991 1.33405,3.494937 1.72435,6.9426 1.14235,10.090897 -0.46085,2.49302 -40.28131,103.170509 -42.7765,108.151239 -0.67987,1.35709 -2.24635,3.5728 -3.48107,4.92378 -3.53051,3.86294 -36.404517,28.04552 -38.125321,28.04552 -0.111288,0 -0.4334,-0.54475 -0.715804,-1.21057 z"
   style="fill:#e3dedb;stroke-width:0.440208" /><path
   id="path231"
   d="m 140.86655,182.25825 c 0,-0.61407 4.43483,-9.98445 9.85519,-20.82307 7.72071,-15.43845 10.10619,-19.8409 11.01409,-20.3268 1.36774,-0.73199 0.8824,-1.19117 5.75902,5.44874 4.66195,6.34761 5.21703,7.56021 4.97738,10.87331 -0.31179,4.31044 -0.98943,4.96221 -16.02719,15.41513 -7.43809,5.1703 -13.9861,9.65448 -14.55114,9.96486 -0.95462,0.52437 -1.02735,0.48528 -1.02735,-0.55217 z"
   style="fill:#e3dedb;stroke-width:0.440208" /></g>
</svg>
